PathFileType	4	(X/Y/Z)	C:\Git\research_data\Projects\torsion_deformities_healthy_kinematics\simulations\P01\pre\dynamic06_l\marker_experimental.trc
DataRate	CameraRate	NumFrames	NumMarkers	Units	OrigDataRate	OrigDataStartFrame	OrigNumFrames
200	200	9	34	mm	200	1	884
Frame#	Time	C7			T10			CLAV			STRN			RBAK			LASI			RASI			SACR			LT1			LT2			LT3			LS1			LS2			LS3			LHEE			LTOE			RT1			RT2			RT3			RS1			RS2			RS3			RHEE			RTOE			LKNE			LANK			RKNE			RANK			LAJC			LKJC			RAJC			RKJC			RHJC			LHJC		
		X1	Y1	Z1	X2	Y2	Z2	X3	Y3	Z3	X4	Y4	Z4	X5	Y5	Z5	X6	Y6	Z6	X7	Y7	Z7	X8	Y8	Z8	X9	Y9	Z9	X10	Y10	Z10	X11	Y11	Z11	X12	Y12	Z12	X13	Y13	Z13	X14	Y14	Z14	X15	Y15	Z15	X16	Y16	Z16	X17	Y17	Z17	X18	Y18	Z18	X19	Y19	Z19	X20	Y20	Z20	X21	Y21	Z21	X22	Y22	Z22	X23	Y23	Z23	X24	Y24	Z24	X25	Y25	Z25	X26	Y26	Z26	X27	Y27	Z27	X28	Y28	Z28	X29	Y29	Z29	X30	Y30	Z30	X31	Y31	Z31	X32	Y32	Z32	X33	Y33	Z33	X34	Y34	Z34	

1	0.000000	-3242.004395	1031.881714	-345.290497	-3268.617188	856.969055	-342.091095	-3119.683350	992.873657	-345.463013	-3075.945801	862.556030	-348.882385	-3265.288574	975.858704	-261.733795	-3160.388672	692.554749	-453.831696	-3123.909912	689.569946	-244.404266	-3287.145996	747.053040	-321.397217	-3227.116699	501.613068	-469.524628	-3306.750732	444.856689	-460.692749	-3174.029785	392.793243	-441.990173	-3307.759521	263.208710	-444.948181	-3416.037354	209.456131	-465.678802	-3288.778076	173.400604	-422.706146	-3430.843018	68.273140	-389.617004	-3291.568359	51.935505	-368.841553	-3138.899170	525.123413	-190.708771	-3169.562256	437.298126	-207.066696	-3029.401367	470.014252	-208.440567	-3060.565430	302.873383	-210.420959	-3138.118164	209.472916	-181.916031	-2999.719971	227.707855	-220.352005	-3080.239746	53.005524	-242.259079	-2939.920410	84.776741	-260.517883	-3282.397705	359.230713	-434.990356	-3387.277344	56.734703	-413.861450	-3070.494141	372.027252	-228.675049	-3035.726562	65.954079	-217.312576	-3387.785156	57.065971	-379.970612	-3273.474854	351.550537	-384.869904	-3039.099365	69.388954	-253.872330	-3068.425049	374.501099	-282.406219	-3199.111635	637.117210	-261.332379	-3225.692724	639.292156	-413.936500	
2	0.005000	-3234.768799	1030.275635	-345.383453	-3261.256348	855.359314	-341.955536	-3112.531494	991.210388	-345.238647	-3068.720459	860.979126	-348.554077	-3258.344238	974.585205	-262.029510	-3153.997803	690.467041	-453.679321	-3116.779541	687.826660	-244.264221	-3279.813965	746.001587	-321.120392	-3223.897217	501.173828	-469.424042	-3303.551514	445.104156	-459.342834	-3171.031494	391.548523	-443.327148	-3306.055420	263.244995	-444.405396	-3415.021973	210.786270	-464.128815	-3287.495361	172.701752	-422.485077	-3430.918213	69.135483	-388.873474	-3291.492676	51.840328	-368.736847	-3132.153809	523.595337	-191.162170	-3162.815186	435.501953	-207.368637	-3022.766113	468.031342	-210.123077	-3050.696533	303.270660	-211.236313	-3123.643066	207.981171	-180.765945	-2987.380859	230.431885	-222.243286	-3062.231445	52.855381	-243.673615	-2922.916504	89.937729	-261.177582	-3279.300293	358.949402	-434.437622	-3386.751465	57.293545	-412.891815	-3064.277344	370.468353	-229.943848	-3016.789307	67.470169	-217.843262	-3386.873291	57.548080	-378.996735	-3269.443359	350.994843	-384.535431	-3021.132080	70.605911	-254.327469	-3062.744629	372.986938	-283.690918	-3192.321677	635.726584	-260.811150	-3219.440282	637.650464	-413.398753	
3	0.010000	-3227.530762	1028.724976	-345.443237	-3253.886719	853.799011	-341.815491	-3105.365234	989.612671	-344.992340	-3061.466553	859.468994	-348.208221	-3251.371338	973.341187	-262.279510	-3147.496094	688.457886	-453.554657	-3109.574463	686.150146	-244.124741	-3272.454590	744.932190	-320.866150	-3220.379395	500.716614	-469.351013	-3300.073975	445.298828	-458.104706	-3167.786865	390.338257	-444.643494	-3304.101807	263.272095	-443.964874	-3413.787354	212.201889	-462.740936	-3286.082764	172.041397	-422.337158	-3430.875977	70.184998	-388.243622	-3291.367188	51.769306	-368.666840	-3125.198730	522.195190	-191.638290	-3155.865967	433.853516	-207.662216	-3015.947266	466.321289	-211.751678	-3041.045654	303.490387	-212.074722	-3109.900879	206.496964	-180.001572	-2975.523926	232.740829	-224.043015	-3045.298340	52.615089	-245.170319	-2906.910889	94.485840	-262.098694	-3275.959717	358.656708	-433.979462	-3386.243652	57.957478	-412.033905	-3057.793457	369.048248	-231.155960	-2999.015381	68.999443	-218.606430	-3386.006592	58.139038	-378.138947	-3265.234375	350.420013	-384.302673	-3004.169922	71.842728	-255.008804	-3056.782959	371.593109	-284.914154	-3185.427225	634.355116	-260.316333	-3213.056681	636.036521	-412.905620	
4	0.015000	-3220.290771	1027.229858	-345.469879	-3246.508301	852.288269	-341.670929	-3098.184326	988.080566	-344.724121	-3054.184326	858.025635	-347.844849	-3244.369873	972.126648	-262.483856	-3140.884033	686.527344	-453.457458	-3102.294678	684.540466	-243.985916	-3265.068115	743.844971	-320.634491	-3216.562988	500.241364	-469.305481	-3296.317871	445.440430	-456.978668	-3164.295654	389.162445	-445.939209	-3301.897461	263.289886	-443.626740	-3412.332275	213.702637	-461.516052	-3284.540283	171.419586	-422.262329	-3430.716064	71.422066	-387.727325	-3291.192139	51.722488	-368.631683	-3118.034912	520.922546	-192.136902	-3148.715088	432.352386	-207.947861	-3008.945068	464.882782	-213.326813	-3031.612305	303.532898	-212.936646	-3096.891846	205.019440	-179.621964	-2964.148438	234.634521	-225.751877	-3029.440186	52.284805	-246.747818	-2891.903320	98.419594	-263.280884	-3272.377930	358.352844	-433.616699	-3385.750488	58.732285	-411.287720	-3051.044434	367.765656	-232.316071	-2982.437988	70.439186	-219.601913	-3385.182373	58.843842	-377.396423	-3260.849854	349.826172	-384.169128	-2988.252197	73.020935	-255.924316	-3050.542236	370.319214	-286.080994	-3178.428549	633.002104	-259.847939	-3206.542545	634.449629	-412.456918	
5	0.020000	-3213.048584	1025.790405	-345.463440	-3239.120850	850.827148	-341.521881	-3090.988770	986.614136	-344.434082	-3046.873779	856.648987	-347.464142	-3237.339844	970.941589	-262.642578	-3134.161133	684.675842	-453.387024	-3094.940430	682.998230	-243.847855	-3257.654297	742.740173	-320.425323	-3212.446289	499.747681	-469.287415	-3292.281250	445.528320	-455.965546	-3160.554932	388.021027	-447.214478	-3299.441162	263.297913	-443.391083	-3410.652344	215.287582	-460.456573	-3282.866211	170.836349	-422.260406	-3430.436279	72.847763	-387.323975	-3290.966309	51.700073	-368.632050	-3110.663574	519.776123	-192.657623	-3141.363525	430.997467	-208.226776	-3001.759766	463.711731	-214.849426	-3022.395752	303.398987	-213.823181	-3084.616211	203.546768	-179.623901	-2953.253174	236.112793	-227.371979	-3014.656006	51.865158	-248.402390	-2877.892822	101.735321	-264.722809	-3268.553467	358.037231	-433.350403	-3385.264160	59.622433	-410.654907	-3044.033447	366.618744	-233.429459	-2967.072998	71.697502	-220.826080	-3384.393066	59.666332	-376.769867	-3256.288818	349.212708	-384.132843	-2973.403076	74.068100	-257.076599	-3044.026123	369.164581	-287.197113	-3171.325814	631.667526	-259.406244	-3199.897515	632.889641	-412.052426	
6	0.025000	-3205.804199	1024.406616	-345.424072	-3231.724854	849.415894	-341.368439	-3083.779053	985.213440	-344.122406	-3039.535156	855.339355	-347.066467	-3230.281250	969.786316	-262.755798	-3127.327148	682.903870	-453.341919	-3087.511719	681.524475	-243.710892	-3250.213867	741.618347	-320.238373	-3208.027344	499.234894	-469.296661	-3287.961182	445.560974	-455.067047	-3156.559814	386.913879	-448.469666	-3296.729492	263.295197	-443.258209	-3408.739990	216.955139	-459.566711	-3281.058350	170.291641	-422.330994	-3430.033447	74.464203	-387.032318	-3290.688965	51.702377	-368.669006	-3103.087891	518.753296	-193.199921	-3133.812988	429.786316	-208.501358	-2994.392334	462.799408	-216.321350	-3013.392578	303.090790	-214.736603	-3073.073975	202.076492	-180.000046	-2942.835693	237.176071	-228.907669	-3000.943115	51.357937	-250.126541	-2864.876953	104.426582	-266.421509	-3264.483398	357.708069	-433.182800	-3384.775879	60.633274	-410.138092	-3036.764160	365.605042	-234.502197	-2952.927002	72.694710	-222.271164	-3383.630615	60.611626	-376.261169	-3251.548340	348.577728	-384.193176	-2959.639160	74.918869	-258.462189	-3037.238037	368.128571	-288.268799	-3164.118922	630.352017	-258.991261	-3193.121339	631.356798	-411.691018	
7	0.030000	-3198.558105	1023.078979	-345.351990	-3224.320801	848.054932	-341.210693	-3076.555176	983.878662	-343.789490	-3032.168701	854.096924	-346.652435	-3223.194824	968.661011	-262.823669	-3120.382324	681.212524	-453.319763	-3080.009033	680.121033	-243.575577	-3242.747314	740.480408	-320.073303	-3203.301758	498.701721	-469.333160	-3283.351807	445.535675	-454.285950	-3152.301270	385.840607	-449.705414	-3293.757080	263.280090	-443.228577	-3406.583252	218.703110	-458.852783	-3279.111816	169.785156	-422.473419	-3429.500732	76.274963	-386.850067	-3290.358154	51.729397	-368.744202	-3095.311768	517.849670	-193.763245	-3126.068115	428.714844	-208.775558	-2986.845459	462.130707	-217.745224	-3004.597900	302.612518	-215.680573	-3062.261719	200.606659	-180.736938	-2932.890137	237.826340	-230.366348	-2988.296387	50.766880	-251.908234	-2852.850830	106.484612	-268.371307	-3260.159912	357.362030	-433.117157	-3384.271973	61.769173	-409.741394	-3029.246094	364.718994	-235.541626	-2939.993408	73.366997	-223.924942	-3382.883057	61.684170	-375.873688	-3246.620361	347.917908	-384.350830	-2946.965332	75.518387	-260.071228	-3030.187012	367.208099	-289.303680	-3156.807874	629.057310	-258.602941	-3186.213878	629.852300	-411.370730	
8	0.035000	-3191.310059	1021.807922	-345.247589	-3216.908691	846.744751	-341.048889	-3069.317139	982.610107	-343.435822	-3024.774902	852.921997	-346.223022	-3216.080078	967.566162	-262.846527	-3113.326416	679.603149	-453.316956	-3072.432861	678.790283	-243.442795	-3235.255127	739.328003	-319.929626	-3198.264160	498.146454	-469.396942	-3278.445557	445.448120	-453.626373	-3147.765625	384.800507	-450.922577	-3290.515869	263.250214	-443.302765	-3404.165771	220.528702	-458.322418	-3277.019775	169.316177	-422.686707	-3428.828125	78.285210	-386.773590	-3289.971191	51.780003	-368.858978	-3087.341309	517.058716	-194.347168	-3118.136719	427.776855	-209.054977	-2979.123779	461.682617	-219.124466	-2996.002930	301.971344	-216.660294	-3052.170410	199.137527	-181.813248	-2923.407715	238.068634	-231.759232	-2976.706055	50.098545	-253.730484	-2841.805176	107.899460	-270.562836	-3255.570312	356.993652	-433.158325	-3383.735352	63.034309	-409.469604	-3021.493652	363.952118	-236.555893	-2928.260498	73.666313	-225.770462	-3382.135498	62.888695	-375.611420	-3241.492920	347.227966	-384.608154	-2935.382080	75.822227	-261.887268	-3022.886230	366.397644	-290.310150	-3149.392506	627.786332	-258.241277	-3179.174501	628.378327	-411.088620	
9	0.040000	-3184.060547	1020.594116	-345.111450	-3209.489746	845.486389	-340.883331	-3062.065918	981.408203	-343.062256	-3017.354736	851.815186	-345.779694	-3208.937988	966.502502	-262.824768	-3106.159424	678.077759	-453.328735	-3064.785156	677.535645	-243.313858	-3227.738770	738.163086	-319.806610	-3192.907227	497.566833	-469.488251	-3273.231689	445.292053	-453.093689	-3142.934814	383.792419	-452.122223	-3286.995850	263.202362	-443.481567	-3401.468018	222.428818	-457.983490	-3274.771973	168.883499	-422.969727	-3428.000977	80.501839	-386.797821	-3289.524414	51.850739	-369.013855	-3079.184570	516.371765	-194.951660	-3110.029785	426.963837	-209.346725	-2971.235107	461.423584	-220.463013	-2987.593994	301.178314	-217.682404	-3042.782471	197.673355	-183.198624	-2914.375244	237.912735	-233.101654	-2966.156250	49.363121	-255.571548	-2831.724854	108.662033	-272.982025	-3250.697510	356.595398	-433.312439	-3383.145508	64.431870	-409.327271	-3013.528320	363.291779	-237.553314	-2917.709473	73.561775	-227.785904	-3381.369141	64.229355	-375.478180	-3236.148438	346.500854	-384.968933	-2924.883789	75.797913	-263.887390	-3015.355713	365.687988	-291.296783	-3141.873535	626.543343	-257.906682	-3172.002594	626.938115	-410.841120	
